<svg xmlns="http://www.w3.org/2000/svg" width="17.778" height="17.99" viewBox="0 0 17.778 17.99">
  <g id="Group_357" data-name="Group 357" transform="translate(-2489.58 -460.776)">
    <path id="Path_8392" data-name="Path 8392" d="M2508.588,473.573a8.287,8.287,0,0,0-6.1-7.035,7.14,7.14,0,0,0-1.614-.25,8.131,8.131,0,0,0-8.3,6.393,6.942,6.942,0,0,0-.188,1.754,8.1,8.1,0,0,0,1.928,5.1,7.906,7.906,0,0,0,1.628,1.47l-.518.517a.7.7,0,0,0,.983.983l.8-.8a8.9,8.9,0,0,0,1.378.471,7.4,7.4,0,0,0,2.061.24,8.172,8.172,0,0,0,3.184-.737l.829.829a.7.7,0,0,0,.983-.983l-.558-.558a7.992,7.992,0,0,0,3.29-4.813,7.433,7.433,0,0,0,.247-1.565l0-.227C2508.624,474.147,2508.61,473.789,2508.588,473.573Zm-1.4,1.259a6.4,6.4,0,0,1-.756,2.664,6.8,6.8,0,0,1-1.617,1.978,6.433,6.433,0,0,1-2.731,1.382,6.345,6.345,0,0,1-1.411.176,6.712,6.712,0,0,1-6.7-5.073,6.973,6.973,0,0,1-.16-2.195,6.242,6.242,0,0,1,1.186-3.265,6.654,6.654,0,0,1,3.784-2.631,6.913,6.913,0,0,1,2.109-.2,6.39,6.39,0,0,1,3.731,1.388,6.581,6.581,0,0,1,2.449,3.867A6.994,6.994,0,0,1,2507.189,474.832Z" transform="translate(-2.011 -3.947)" fill="#2f7ce4" fill-rule="evenodd"/>
    <path id="Path_8393" data-name="Path 8393" d="M2509.273,482.327q0-1.4,0-2.808a.647.647,0,0,0-.106-.366.44.44,0,0,0-.488-.161.5.5,0,0,0-.325.514q0,1.388,0,2.777a1.184,1.184,0,0,0-.715.739h-3.216a.372.372,0,1,0,0,.743h3.294a.99.99,0,0,0,1.044.719,1.145,1.145,0,0,0,1.183-1.138A1.116,1.116,0,0,0,2509.273,482.327Z" transform="translate(-10.375 -13.044)" fill="#2f7ce4" fill-rule="evenodd"/>
    <path id="Path_8394" data-name="Path 8394" d="M2490.655,466.193a7.734,7.734,0,0,1,2.081-2.593,8.325,8.325,0,0,1,2.51-1.419,3.08,3.08,0,1,0-4.59,4.012Z" fill="#2f7ce4" fill-rule="evenodd"/>
    <path id="Path_8395" data-name="Path 8395" d="M2536.957,466.193a3.08,3.08,0,1,0-4.59-4.012,8.32,8.32,0,0,1,2.509,1.419A7.728,7.728,0,0,1,2536.957,466.193Z" transform="translate(-30.673)" fill="#2f7ce4" fill-rule="evenodd"/>
  </g>
</svg>
